<svg xmlns="http://www.w3.org/2000/svg" xmlns:xlink="http://www.w3.org/1999/xlink" version="1.1" width="640" height="480" viewBox="0 0 640 480" xml:space="preserve">
<desc>Created with Fabric.js 3.6.6</desc>
<defs>
</defs>
<g transform="matrix(-0.03 0.02 0.02 0.03 302.57 240.17)"  >
<path style="stroke: none; stroke-width: 1; stroke-dasharray: none; stroke-linecap: butt; stroke-dashoffset: 0; stroke-linejoin: miter; stroke-miterlimit: 4; fill: rgb(0,0,0); fill-rule: nonzero; opacity: 1;"  transform=" translate(-5305.7, -6245.84)" d="M 7835 11870 c -555 -59 -1064 -296 -1524 -710 c -160 -144 -371 -399 -492 -595 c -61 -98 -2515 -4298 -2621 -4485 c -466 -822 -641 -1663 -477 -2295 c 67 -259 222 -503 409 -644 c 367 -277 835 -291 1345 -42 c 249 122 483 292 724 526 c 249 242 463 509 654 815 c 141 227 1322 2258 1340 2305 c 25 65 33 196 17 266 c -49 211 -237 359 -455 359 c -179 0 -320 -86 -421 -256 c -22 -38 -301 -514 -619 -1059 c -318 -544 -602 -1030 -633 -1080 c -283 -463 -627 -821 -973 -1014 c -93 -52 -216 -92 -299 -98 c -71 -5 -77 -4 -107 21 c -41 34 -68 95 -89 197 c -25 122 -15 389 20 559 c 65 316 185 633 354 935 c 131 234 2581 4424 2640 4515 c 296 458 770 777 1250 841 c 134 18 345 6 467 -25 c 125 -33 279 -107 383 -186 c 503 -379 624 -1191 283 -1895 c -61 -127 -3739 -6430 -3822 -6550 c -464 -673 -1395 -921 -2144 -570 c -114 53 -767 425 -900 513 c -206 136 -439 401 -554 631 c -238 475 -240 1035 -6 1502 c 34 66 813 1402 2808 4814 c 341 583 636 1094 656 1135 c 31 65 36 86 39 167 c 5 107 -6 160 -52 248 c -77 148 -240 245 -411 245 c -129 -1 -230 -44 -325 -140 c -57 -57 -103 -131 -391 -625 c -180 -308 -942 -1613 -1694 -2900 c -752 -1287 -1390 -2380 -1418 -2430 c -150 -265 -258 -596 -303 -925 c -24 -170 -24 -490 0 -660 c 56 -412 198 -791 420 -1124 c 111 -165 187 -258 330 -401 c 220 -220 326 -294 815 -575 c 620 -356 719 -402 1035 -485 c 258 -68 358 -79 676 -79 c 308 0 403 10 650 70 c 356 88 754 285 1036 514 c 192 157 394 378 531 585 c 60 90 3729 6364 3816 6525 c 146 271 261 622 314 960 c 22 145 25 576 5 715 c -65 432 -208 788 -440 1095 c -72 95 -236 265 -327 340 c -275 225 -609 374 -975 435 c -112 19 -430 27 -545 15 z" stroke-linecap="round" />
</g>
</svg>